# xmcd CD database file
#
# Track frame offsets:
#	150
#	14727
#	25485
#	43075
#	57393
#	74044
#	89002
#	104601
#	118587
#	133663
#	150282
#	167658
#	186579
#	203419
#	220586
#	236506
#	253079
#	265557
#	284043
#	296676
#
# Disc length: 4178 seconds
#
# Revision: 1
# Processed by: cddbd v1.5.2PL0 Copyright (c) Steve Scherf et al.
# Submitted via: CDex 1.51
#
DISCID=38105014
DTITLE=Various Artist - 100 Oorspronklikke Afrikaanse Treffers
DYEAR=1900
DGENRE=
TTITLE0=Sonja Heroldt - Ek verlang na jou
TTITLE1=Laurika Rauch - Kinders van die wind
TTITLE2=Anton Goosen - Boy van die suburbs
TTITLE3=Ge Korsten - Liefling
TTITLE4=Sias Reinecke - Sproetjies
TTITLE5=Anneli van Rooyen - Seemeeu
TTITLE6=Karin Hougaard - Lui lui telefoon
TTITLE7=Rina Hugo - Troepie doepie
TTITLE8=Randall and Koba Wicomb - Duitswes wals
TTITLE9=Bles Bridges - Reik na die sterre
TTITLE10=Andre Schwartz - Met jou in my lewe
TTITLE11=Dana Winner - Sewe reenboe
TTITLE12=Karin Zoid - Afrikaners is plesierig
TTITLE13=Stefan Ludik - Liggroen Doringbome
TTITLE14=Nadine - Hoor hoe klop my hart
TTITLE15=Riku Latti - Onder jou asem
TTITLE16=Johan Stemmet - C'est la vie
TTITLE17=Steve Hofmeyer - Pampoen
TTITLE18=Glennys Lynne - Ramaja
TTITLE19=Laura Lynn - Jy het my duisend maal belowe
EXTD=
EXTT0=
EXTT1=
EXTT2=
EXTT3=
EXTT4=
EXTT5=
EXTT6=
EXTT7=
EXTT8=
EXTT9=
EXTT10=
EXTT11=
EXTT12=
EXTT13=
EXTT14=
EXTT15=
EXTT16=
EXTT17=
EXTT18=
EXTT19=
PLAYORDER=
